#!OML:ASF F:\VICON\USERDATA\INSTALL\rory3\rory3.ASF
:FULLY-SPECIFIED
:DEGREES
454
root -15.905 18.026 17.5015 -3.6973 -48.5803 -0.940398
lowerback 10.2055 1.65482 1.32171
upperback 0.834629 2.38833 1.1196
thorax -4.84505 1.15409 0.0846694
lowerneck -19.4661 -4.24955 -9.12977
upperneck 27.289 -5.20799 6.37236
head 12.7492 -2.48973 3.11577
rclavicle -6.84192e-014 6.36111e-015
rhumerus -32.9353 -15.6255 -77.4915
rradius 26.4962
rwrist 14.0763
rhand -10.9693 8.47491
rfingers 7.12502
rthumb 15.0501 -20.958
lclavicle -6.84192e-014 6.36111e-015
lhumerus -37.162 4.26243 84.3506
lradius 31.0743
lwrist -10.2499
lhand -14.0177 26.3115
lfingers 7.12502
lthumb 12.112 55.941
rfemur -5.19738 3.33497 27.0256
rtibia 30.4515
rfoot -16.8178 -5.88522
rtoes 11.1448
lfemur -15.3836 1.2201 -17.0668
ltibia 52.0462
lfoot -5.52358 1.07313
ltoes -3.83594
455
root -15.9852 18.02 17.5782 -3.43715 -48.7794 -1.23677
lowerback 10.2542 1.74459 1.62419
upperback 0.803858 2.54477 1.14248
thorax -4.89152 1.22448 -0.0853395
lowerneck -19.3609 -4.22299 -9.20805
upperneck 27.2198 -5.15603 6.39779
head 12.6978 -2.47266 3.14746
rclavicle 8.19987e-015 -2.26615e-014
rhumerus -32.3517 -15.3199 -77.644
rradius 26.5412
rwrist 13.4651
rhand -11.3389 8.73792
rfingers 7.12502
rthumb 14.694 -20.7214
lclavicle 8.19987e-015 -2.26615e-014
lhumerus -37.3357 4.13327 84.486
lradius 31.0142
lwrist -9.76337
lhand -13.9457 26.2067
lfingers 7.12502
lthumb 12.1815 55.832
rfemur -4.78613 3.42489 27.2698
rtibia 30.3624
rfoot -17.1795 -5.89919
rtoes 11.1607
lfemur -16.0409 1.24686 -16.8729
ltibia 50.9607
lfoot -6.10308 2.01292
ltoes -3.74912
456
root -16.0653 18.0118 17.6501 -3.38508 -48.9069 -1.26794
lowerback 10.3326 1.79217 1.70945
upperback 0.852738 2.61273 1.0381
thorax -4.87454 1.25528 -0.253066
lowerneck -19.631 -4.16427 -8.91663
upperneck 27.2106 -5.11193 6.3098
head 12.7328 -2.42773 3.06904
rclavicle -2.45623e-014 1.59028e-014
rhumerus -31.7245 -14.9415 -78.101
rradius 26.9707
rwrist 12.9419
rhand -11.486 8.77007
rfingers 7.12502
rthumb 14.5523 -20.6995
lclavicle -2.45623e-014 1.59028e-014
lhumerus -37.3129 4.18616 84.3499
lradius 30.9399
lwrist -9.69542
lhand -13.7145 26.0489
lfingers 7.12502
lthumb 12.4043 55.6609
rfemur -4.3482 3.73655 27.3888
rtibia 30.2277
rfoot -17.4333 -6.25606
rtoes 10.9185
lfemur -16.6307 1.26631 -16.8697
ltibia 49.7055
lfoot -6.60078 2.97862
ltoes -5.06981
457
root -16.1449 18.0049 17.7221 -3.28186 -49.0423 -1.34788
lowerback 10.3997 1.81271 1.87667
upperback 0.912742 2.652 0.901973
thorax -4.83437 1.2703 -0.495072
lowerneck -20.0079 -4.09943 -8.54354
upperneck 27.2097 -5.05197 6.13717
head 12.7867 -2.37629 2.94581
rclavicle -7.57494e-014 -1.47101e-014
rhumerus -31.1132 -14.212 -78.7254
rradius 27.5334
rwrist 12.2429
rhand -11.3318 8.9893
rfingers 7.12502
rthumb 14.7009 -20.4695
lclavicle -7.57494e-014 -1.47101e-014
lhumerus -37.2318 4.5011 84.0443
lradius 30.7807
lwrist -9.99613
lhand -13.6734 26.0251
lfingers 7.12502
lthumb 12.4441 55.6346
rfemur -3.91312 4.03345 27.5273
rtibia 30.0988
rfoot -17.665 -6.49937
rtoes 11.2454
lfemur -17.196 1.40624 -16.8147
ltibia 48.3296
lfoot -7.06755 3.79346
ltoes -6.47231
458
root -16.2238 18.0016 17.7977 -3.20885 -49.1506 -1.41329
lowerback 10.4431 1.8284 2.07778
upperback 0.9604 2.69047 0.802502
thorax -4.79374 1.28476 -0.717199
lowerneck -20.0645 -4.07322 -8.35722
upperneck 27.0119 -4.98146 5.89728
head 12.6989 -2.35302 2.82869
rclavicle 7.09164e-014 -1.19271e-015
rhumerus -30.5876 -13.4199 -79.2027
rradius 28.0924
rwrist 11.5682
rhand -11.2136 9.28081
rfingers 7.12502
rthumb 14.8147 -20.1696
lclavicle 7.09164e-014 -1.19271e-015
lhumerus -37.1561 4.74395 83.8735
lradius 30.5427
lwrist -10.4005
lhand -13.8261 26.1168
lfingers 7.12502
lthumb 12.2967 55.7353
rfemur -3.43801 4.20906 27.6179
rtibia 29.9129
rfoot -17.7855 -6.57703
rtoes 11.1787
lfemur -17.6698 1.42865 -16.7802
ltibia 46.8352
lfoot -7.57536 4.5236
ltoes -6.51365
459
root -16.3008 17.99 17.8734 -2.96711 -49.193 -1.68054
lowerback 10.4811 1.8705 2.42038
upperback 1.01463 2.78196 0.74406
thorax -4.73656 1.32333 -0.982923
lowerneck -20.0871 -4.1671 -8.46031
upperneck 26.7711 -5.09284 5.99849
head 12.6231 -2.39539 2.86183
rclavicle -4.60187e-014 -4.37326e-015
rhumerus -30.1412 -12.7273 -79.5668
rradius 28.7706
rwrist 10.8736
rhand -11.0847 9.78397
rfingers 7.12502
rthumb 14.9389 -19.6573
lclavicle -4.60187e-014 -4.37326e-015
lhumerus -37.0025 4.69436 83.8759
lradius 30.3148
lwrist -10.8012
lhand -13.9105 26.2603
lfingers 7.12502
lthumb 12.2154 55.8836
rfemur -2.97338 4.23821 27.8445
rtibia 29.6685
rfoot -17.8902 -6.61106
rtoes 10.8614
lfemur -18.1701 1.39633 -16.6041
ltibia 45.2861
lfoot -7.88529 5.02346
ltoes -6.22241
460
root -16.379 17.9858 17.9489 -2.69179 -49.2232 -1.9497
lowerback 10.5304 1.90469 2.71232
upperback 1.01866 2.86032 0.704609
thorax -4.74099 1.35568 -1.20023
lowerneck -20.0361 -4.25473 -8.68712
upperneck 26.5524 -5.22307 6.29607
head 12.5534 -2.43533 2.98981
rclavicle -1.50269e-014 1.59028e-015
rhumerus -29.7085 -12.4301 -79.7876
rradius 29.2671
rwrist 10.822
rhand -10.9999 10.1276
rfingers 7.12502
rthumb 15.0206 -19.3075
lclavicle -1.50269e-014 1.59028e-015
lhumerus -36.9602 4.75552 83.8314
lradius 30.1016
lwrist -11.2815
lhand -13.8341 26.0567
lfingers 7.12502
lthumb 12.2891 55.6756
rfemur -2.51932 4.37772 28.1104
rtibia 29.389
rfoot -17.9092 -6.83254
rtoes 10.466
lfemur -18.6357 1.32885 -16.4262
ltibia 43.6374
lfoot -8.12168 5.28175
ltoes -4.57088
461
root -16.4587 17.9812 18.0241 -2.49649 -49.2785 -2.05671
lowerback 10.5462 1.94945 2.8517
upperback 0.9478 2.93824 0.688851
thorax -4.81327 1.3896 -1.30793
lowerneck -19.9739 -4.27697 -8.87786
upperneck 26.5403 -5.219 6.37585
head 12.5444 -2.44367 3.05412
rclavicle -4.24281e-014 -3.97569e-015
rhumerus -29.3446 -11.9347 -79.9617
rradius 29.7034
rwrist 10.7512
rhand -11.1204 9.88764
rfingers 7.12502
rthumb 14.9045 -19.5562
lclavicle -4.24281e-014 -3.97569e-015
lhumerus -37.0934 5.08109 83.7236
lradius 29.9288
lwrist -11.7879
lhand -13.6787 25.6555
lfingers 7.12502
lthumb 12.4389 55.2653
rfemur -2.0822 4.59628 28.2633
rtibia 29.0775
rfoot -17.7479 -6.75747
rtoes 11.7726
lfemur -19.1335 1.34277 -16.3535
ltibia 41.9398
lfoot -8.35124 5.36666
ltoes -3.67371
462
root -16.5389 17.9739 18.0989 -2.45245 -49.2758 -2.03345
lowerback 10.6109 1.98931 2.85479
upperback 0.896102 2.99557 0.687144
thorax -4.90102 1.41588 -1.32354
lowerneck -19.9772 -4.27258 -8.97958
upperneck 26.5415 -5.15491 6.3081
head 12.5411 -2.43414 3.05615
rclavicle 2.22204e-014 -1.98785e-015
rhumerus -29.1286 -10.8467 -80.2359
rradius 30.5641
rwrist 10.1266
rhand -11.004 8.66918
rfingers 7.12502
rthumb 15.0167 -20.7663
lclavicle 2.22204e-014 -1.98785e-015
lhumerus -37.1836 5.45212 83.6561
lradius 29.6937
lwrist -12.3239
lhand -13.9185 25.4147
lfingers 7.12502
lthumb 12.2077 55.0385
rfemur -1.56343 4.52083 28.2605
rtibia 28.6947
rfoot -18.2278 -7.47178
rtoes 9.46515
lfemur -19.5083 1.26023 -16.3678
ltibia 40.1609
lfoot -8.56606 5.5394
ltoes -3.67254
463
root -16.6193 17.9709 18.1739 -2.21004 -49.2008 -2.214
lowerback 10.5867 2.02593 2.96177
upperback 0.926343 3.05574 0.709025
thorax -4.84897 1.44459 -1.36727
lowerneck -20.1744 -4.31862 -9.01407
upperneck 26.4517 -5.18181 6.31185
head 12.5493 -2.44289 3.05565
rclavicle 1.17718e-013 1.98785e-016
rhumerus -28.7899 -10.2537 -80.4074
rradius 31.5041
rwrist 10.2787
rhand -10.4888 7.04356
rfingers 7.12502
rthumb 15.5129 -22.3541
lclavicle 1.17718e-013 1.98785e-016
lhumerus -37.0116 5.59127 83.6981
lradius 29.4051
lwrist -12.6116
lhand -14.3478 25.365
lfingers 7.12502
lthumb 11.7938 55.013
rfemur -1.08552 4.28749 28.3724
rtibia 28.2858
rfoot -18.5187 -7.63374
rtoes 8.65892
lfemur -19.8817 1.08449 -16.2528
ltibia 38.2996
lfoot -8.54401 5.75043
ltoes -4.9872
464
root -16.6998 17.978 18.2475 -1.78657 -49.0877 -2.487
lowerback 10.475 2.03467 3.12845
upperback 0.932652 3.08293 0.721145
thorax -4.77081 1.45635 -1.44661
lowerneck -20.3977 -4.34563 -8.86727
upperneck 26.3951 -5.20513 6.18977
head 12.5657 -2.44806 2.97656
rclavicle -1.31832e-013 1.98785e-014
rhumerus -28.3018 -9.97101 -80.5247
rradius 31.7993
rwrist 10.0376
rhand -10.9992 7.82369
rfingers 7.12502
rthumb 15.0213 -21.6114
lclavicle -1.31832e-013 1.98785e-014
lhumerus -36.8009 5.70025 83.6968
lradius 29.1174
lwrist -12.8434
lhand -14.5358 25.4781
lfingers 7.12502
lthumb 11.6125 55.1363
rfemur -0.738257 4.20436 28.5888
rtibia 27.8452
rfoot -18.6398 -7.92406
rtoes 8.18062
lfemur -20.3553 0.813596 -16.0318
ltibia 36.346
lfoot -8.41402 5.8503
ltoes -3.47487
